<svg width="700" height="700" viewBox="0 0 700 700" fill="none" xmlns="http://www.w3.org/2000/svg">
<path d="M343.078 0L84 147.547L170.23 198.601L343.078 99.5264L515.926 197.375V396.621L602.221 346.922V147.547L343.078 0Z" fill="url(#paint0_linear_1_744)"/>
<path d="M343.081 198.407L256.85 248.622L515.928 396.62V297.094L343.081 198.407Z" fill="url(#paint1_linear_1_744)"/>
<g style="mix-blend-mode:lighten">
<g style="mix-blend-mode:lighten">
<path d="M343.147 213.316L282.734 248.557L513.736 380.549V310.713L343.147 213.316Z" fill="url(#paint2_linear_1_744)"/>
</g>
<g style="mix-blend-mode:lighten">
<path d="M343.073 14.8469L109.683 147.807L170.354 183.693L343.073 84.6832L528.83 189.889V319.299L513.727 310.715V380.551L515.921 381.778L589.307 339.437V155.1L343.073 14.8469Z" fill="url(#paint3_linear_1_744)"/>
</g>
</g>
<path d="M343.077 496.143L429.307 445.928L170.229 297.93V397.52L343.077 496.143Z" fill="url(#paint4_linear_1_744)"/>
<path d="M343.078 694.615L602.221 547.003L515.926 495.95L343.078 595.024L170.23 497.176V297.93L84 347.693V547.003L343.078 694.615Z" fill="url(#paint5_linear_1_744)"/>
<g style="mix-blend-mode:lighten">
<g style="mix-blend-mode:lighten">
<path d="M343.022 481.299L403.499 446.058L170.303 312.84L169.271 313.421V382.031L343.022 481.299Z" fill="url(#paint6_linear_1_744)"/>
</g>
<g style="mix-blend-mode:lighten">
<path d="M515.796 510.928L343.142 609.874L157.321 504.733V375.258L169.262 382.035V313.425L96.9082 355.185V539.522L343.078 679.71L576.468 546.815L515.796 510.928Z" fill="url(#paint7_linear_1_744)"/>
</g>
</g>
<g style="mix-blend-mode:multiply">
<path d="M175.651 301.028L170.229 297.93V397.52L186.752 406.944L175.651 301.028Z" fill="#D9D9D9"/>
</g>
<defs>
<linearGradient id="paint0_linear_1_744" x1="100.194" y1="793.234" x2="586.566" y2="792.793" gradientUnits="userSpaceOnUse">
<stop offset="0.395833" stop-color="#E143CA"/>
<stop offset="1" stop-color="#582897"/>
</linearGradient>
<linearGradient id="paint1_linear_1_744" x1="264.946" y1="594.83" x2="508.102" y2="594.61" gradientUnits="userSpaceOnUse">
<stop offset="0.395833" stop-color="#E143CA"/>
<stop offset="1" stop-color="#582897"/>
</linearGradient>
<linearGradient id="paint2_linear_1_744" x1="289.953" y1="547.778" x2="506.758" y2="547.57" gradientUnits="userSpaceOnUse">
<stop offset="0.395833" stop-color="#E143CA"/>
<stop offset="1" stop-color="#582897"/>
</linearGradient>
<linearGradient id="paint3_linear_1_744" x1="124.672" y1="748.701" x2="574.818" y2="748.293" gradientUnits="userSpaceOnUse">
<stop offset="0.395833" stop-color="#E143CA"/>
<stop offset="1" stop-color="#582897"/>
</linearGradient>
<linearGradient id="paint4_linear_1_744" x1="178.325" y1="694.353" x2="421.481" y2="694.132" gradientUnits="userSpaceOnUse">
<stop offset="0.395833" stop-color="#E143CA"/>
<stop offset="1" stop-color="#582897"/>
</linearGradient>
<linearGradient id="paint5_linear_1_744" x1="100.194" y1="1091.29" x2="586.566" y2="1090.85" gradientUnits="userSpaceOnUse">
<stop offset="0.395833" stop-color="#E143CA"/>
<stop offset="1" stop-color="#582897"/>
</linearGradient>
<linearGradient id="paint6_linear_1_744" x1="176.59" y1="649.755" x2="396.424" y2="649.542" gradientUnits="userSpaceOnUse">
<stop offset="0.395833" stop-color="#E143CA"/>
<stop offset="1" stop-color="#582897"/>
</linearGradient>
<linearGradient id="paint7_linear_1_744" x1="111.894" y1="1045.99" x2="561.98" y2="1045.58" gradientUnits="userSpaceOnUse">
<stop offset="0.395833" stop-color="#E143CA"/>
<stop offset="1" stop-color="#582897"/>
</linearGradient>
</defs>
</svg>
